<svg width="40" height="40" viewBox="0 0 40 40" fill="none" xmlns="http://www.w3.org/2000/svg">
<rect width="40" height="40" rx="16" fill="#F6F7F9"/>
<path d="M12.1453 16.7702L25.9 12.5515C26.0862 12.4972 26.2824 12.4869 26.4732 12.5216C26.664 12.5562 26.8442 12.6347 26.9994 12.751C27.1546 12.8673 27.2806 13.018 27.3675 13.1914C27.4544 13.3648 27.4998 13.556 27.5 13.7499V24.9999C27.5 25.3314 27.3683 25.6494 27.1339 25.8838C26.8995 26.1182 26.5815 26.2499 26.25 26.2499C26.1305 26.2499 26.0115 26.2328 25.8969 26.1991L19.375 24.1976V24.9999C19.375 25.3314 19.2433 25.6494 19.0089 25.8838C18.7745 26.1182 18.4565 26.2499 18.125 26.2499H15.625C15.2935 26.2499 14.9755 26.1182 14.7411 25.8838C14.5067 25.6494 14.375 25.3314 14.375 24.9999V22.664L12.1453 21.9804C11.8873 21.9028 11.6609 21.7444 11.4997 21.5285C11.3385 21.3126 11.251 21.0506 11.25 20.7812V17.9687C11.2512 17.6993 11.3388 17.4375 11.5 17.2218C11.6612 17.006 11.8874 16.8477 12.1453 16.7702ZM19.375 22.8905L26.25 24.9999V13.7499L19.375 15.8593V22.8905ZM15.625 24.9999H18.125V23.814L15.625 23.0468V24.9999ZM12.5 20.7812H12.5086L18.125 22.5062V16.2437L12.5086 17.9624H12.5V20.7749V20.7812Z" fill="#E27000"/>
</svg>
