<svg width="40" height="40" viewBox="0 0 40 40" fill="none" xmlns="http://www.w3.org/2000/svg">
<rect width="40" height="40" rx="16" fill="#F6F7F9"/>
<path d="M29.9998 20.625C29.9998 20.7907 29.934 20.9497 29.8167 21.0669C29.6995 21.1841 29.5406 21.25 29.3748 21.25H28.1248V22.5C28.1248 22.6657 28.059 22.8247 27.9417 22.9419C27.8245 23.0591 27.6656 23.125 27.4998 23.125C27.334 23.125 27.1751 23.0591 27.0579 22.9419C26.9406 22.8247 26.8748 22.6657 26.8748 22.5V21.25H25.6248C25.459 21.25 25.3001 21.1841 25.1829 21.0669C25.0656 20.9497 24.9998 20.7907 24.9998 20.625C24.9998 20.4592 25.0656 20.3002 25.1829 20.183C25.3001 20.0658 25.459 20 25.6248 20H26.8748V18.75C26.8748 18.5842 26.9406 18.4252 27.0579 18.308C27.1751 18.1908 27.334 18.125 27.4998 18.125C27.6656 18.125 27.8245 18.1908 27.9417 18.308C28.059 18.4252 28.1248 18.5842 28.1248 18.75V20H29.3748C29.5406 20 29.6995 20.0658 29.8167 20.183C29.934 20.3002 29.9998 20.4592 29.9998 20.625ZM25.4787 25.2226C25.5854 25.3496 25.6373 25.5138 25.6229 25.6791C25.6086 25.8444 25.5292 25.9971 25.4021 26.1039C25.2751 26.2106 25.1109 26.2624 24.9457 26.2481C24.7804 26.2337 24.6276 26.1543 24.5209 26.0273C22.949 24.1554 20.7881 23.125 18.4373 23.125C16.0865 23.125 13.9256 24.1554 12.3537 26.0273C12.247 26.1542 12.0942 26.2335 11.929 26.2478C11.7639 26.2621 11.5998 26.2102 11.4728 26.1035C11.3459 25.9968 11.2666 25.844 11.2523 25.6788C11.238 25.5136 11.29 25.3495 11.3967 25.2226C12.5639 23.8335 14.0154 22.8468 15.6287 22.3187C14.6489 21.7085 13.8946 20.7957 13.4797 19.7186C13.0649 18.6415 13.0122 17.4585 13.3295 16.3487C13.6469 15.239 14.317 14.2627 15.2386 13.5677C16.1602 12.8728 17.283 12.4968 18.4373 12.4968C19.5916 12.4968 20.7144 12.8728 21.636 13.5677C22.5576 14.2627 23.2277 15.239 23.5451 16.3487C23.8624 17.4585 23.8097 18.6415 23.3948 19.7186C22.98 20.7957 22.2257 21.7085 21.2459 22.3187C22.8592 22.8468 24.3107 23.8335 25.4787 25.2226ZM18.4373 21.875C19.2408 21.875 20.0262 21.6367 20.6943 21.1903C21.3624 20.7439 21.8831 20.1094 22.1906 19.3671C22.498 18.6248 22.5785 17.8079 22.4217 17.0199C22.265 16.2318 21.8781 15.508 21.3099 14.9398C20.7418 14.3717 20.0179 13.9848 19.2299 13.828C18.4418 13.6713 17.625 13.7517 16.8826 14.0592C16.1403 14.3667 15.5058 14.8874 15.0595 15.5554C14.6131 16.2235 14.3748 17.009 14.3748 17.8125C14.376 18.8895 14.8044 19.9221 15.566 20.6837C16.3276 21.4453 17.3602 21.8737 18.4373 21.875Z" fill="#9810FA"/>
</svg>
