<svg width="40" height="40" viewBox="0 0 40 40" fill="none" xmlns="http://www.w3.org/2000/svg">
<rect width="40" height="40" rx="16" fill="#F6F7F9"/>
<path d="M26.25 12.5H24.375V11.875C24.375 11.7092 24.3092 11.5503 24.1919 11.4331C24.0747 11.3158 23.9158 11.25 23.75 11.25C23.5842 11.25 23.4253 11.3158 23.3081 11.4331C23.1908 11.5503 23.125 11.7092 23.125 11.875V12.5H16.875V11.875C16.875 11.7092 16.8092 11.5503 16.6919 11.4331C16.5747 11.3158 16.4158 11.25 16.25 11.25C16.0842 11.25 15.9253 11.3158 15.8081 11.4331C15.6908 11.5503 15.625 11.7092 15.625 11.875V12.5H13.75C13.4185 12.5 13.1005 12.6317 12.8661 12.8661C12.6317 13.1005 12.5 13.4185 12.5 13.75V26.25C12.5 26.5815 12.6317 26.8995 12.8661 27.1339C13.1005 27.3683 13.4185 27.5 13.75 27.5H26.25C26.5815 27.5 26.8995 27.3683 27.1339 27.1339C27.3683 26.8995 27.5 26.5815 27.5 26.25V13.75C27.5 13.4185 27.3683 13.1005 27.1339 12.8661C26.8995 12.6317 26.5815 12.5 26.25 12.5ZM15.625 13.75V14.375C15.625 14.5408 15.6908 14.6997 15.8081 14.8169C15.9253 14.9342 16.0842 15 16.25 15C16.4158 15 16.5747 14.9342 16.6919 14.8169C16.8092 14.6997 16.875 14.5408 16.875 14.375V13.75H23.125V14.375C23.125 14.5408 23.1908 14.6997 23.3081 14.8169C23.4253 14.9342 23.5842 15 23.75 15C23.9158 15 24.0747 14.9342 24.1919 14.8169C24.3092 14.6997 24.375 14.5408 24.375 14.375V13.75H26.25V16.25H13.75V13.75H15.625ZM26.25 26.25H13.75V17.5H26.25V26.25Z" fill="#009966"/>
</svg>
