<svg width="40" height="40" viewBox="0 0 40 40" fill="none" xmlns="http://www.w3.org/2000/svg">
<rect width="40" height="40" rx="16" fill="#F6F7F9"/>
<path d="M21.875 19.375H20.625V14.375H21.25C21.913 14.375 22.5489 14.6384 23.0178 15.1072C23.4866 15.5761 23.75 16.212 23.75 16.875C23.75 17.0408 23.8158 17.1997 23.9331 17.3169C24.0503 17.4342 24.2092 17.5 24.375 17.5C24.5408 17.5 24.6997 17.4342 24.8169 17.3169C24.9342 17.1997 25 17.0408 25 16.875C24.999 15.8808 24.6035 14.9275 23.9005 14.2245C23.1975 13.5215 22.2442 13.126 21.25 13.125H20.625V11.875C20.625 11.7092 20.5592 11.5503 20.4419 11.4331C20.3247 11.3158 20.1658 11.25 20 11.25C19.8342 11.25 19.6753 11.3158 19.5581 11.4331C19.4408 11.5503 19.375 11.7092 19.375 11.875V13.125H18.75C17.7554 13.125 16.8016 13.5201 16.0983 14.2233C15.3951 14.9266 15 15.8804 15 16.875C15 17.8696 15.3951 18.8234 16.0983 19.5267C16.8016 20.2299 17.7554 20.625 18.75 20.625H19.375V25.625H18.125C17.462 25.625 16.8261 25.3616 16.3572 24.8928C15.8884 24.4239 15.625 23.788 15.625 23.125C15.625 22.9592 15.5592 22.8003 15.4419 22.6831C15.3247 22.5658 15.1658 22.5 15 22.5C14.8342 22.5 14.6753 22.5658 14.5581 22.6831C14.4408 22.8003 14.375 22.9592 14.375 23.125C14.376 24.1192 14.7715 25.0725 15.4745 25.7755C16.1775 26.4785 17.1308 26.874 18.125 26.875H19.375V28.125C19.375 28.2908 19.4408 28.4497 19.5581 28.5669C19.6753 28.6842 19.8342 28.75 20 28.75C20.1658 28.75 20.3247 28.6842 20.4419 28.5669C20.5592 28.4497 20.625 28.2908 20.625 28.125V26.875H21.875C22.8696 26.875 23.8234 26.4799 24.5267 25.7767C25.2299 25.0734 25.625 24.1196 25.625 23.125C25.625 22.1304 25.2299 21.1766 24.5267 20.4733C23.8234 19.7701 22.8696 19.375 21.875 19.375ZM18.75 19.375C18.087 19.375 17.4511 19.1116 16.9822 18.6428C16.5134 18.1739 16.25 17.538 16.25 16.875C16.25 16.212 16.5134 15.5761 16.9822 15.1072C17.4511 14.6384 18.087 14.375 18.75 14.375H19.375V19.375H18.75ZM21.875 25.625H20.625V20.625H21.875C22.538 20.625 23.1739 20.8884 23.6428 21.3572C24.1116 21.8261 24.375 22.462 24.375 23.125C24.375 23.788 24.1116 24.4239 23.6428 24.8928C23.1739 25.3616 22.538 25.625 21.875 25.625Z" fill="#165DFC"/>
</svg>
