<svg width="32" height="32" viewBox="0 0 32 32" fill="none" xmlns="http://www.w3.org/2000/svg">
<path d="M3.4325 10.8324L25.44 4.08244C25.7379 3.99556 26.0519 3.97918 26.3572 4.03459C26.6624 4.09 26.9507 4.21568 27.199 4.40169C27.4473 4.5877 27.649 4.82895 27.788 5.10634C27.927 5.38373 27.9996 5.68966 28 5.99994V23.9999C28 24.5304 27.7893 25.0391 27.4142 25.4142C27.0391 25.7892 26.5304 25.9999 26 25.9999C25.8088 26 25.6185 25.9727 25.435 25.9187L15 22.7162V23.9999C15 24.5304 14.7893 25.0391 14.4142 25.4142C14.0391 25.7892 13.5304 25.9999 13 25.9999H9C8.46957 25.9999 7.96086 25.7892 7.58579 25.4142C7.21071 25.0391 7 24.5304 7 23.9999V20.2624L3.4325 19.1687C3.01961 19.0446 2.65751 18.7912 2.39959 18.4457C2.14168 18.1003 2.00159 17.6811 2 17.2499V12.7499C2.00186 12.319 2.14207 11.9001 2.39997 11.5549C2.65786 11.2097 3.01982 10.9564 3.4325 10.8324ZM15 20.6249L26 23.9999V5.99994L15 9.37494V20.6249ZM9 23.9999H13V22.1024L9 20.8749V23.9999ZM4 17.2499H4.01375L13 20.0099V9.98994L4.01375 12.7399H4V17.2399V17.2499Z" fill="#9810FA"/>
</svg>
